# xmcd CD database file
#
# Track frame offsets:
#	150
#	19055
#	37378
#	55293
#	72033
#	88103
#	118025
#	133163
#	153215
#	179248
#	203020
#	223828
#
# Disc length: 3183 seconds
#
# Revision: 8
# Processed by: cddbd v1.5.1PL2 Copyright (c) Steve Scherf et al.
# Submitted via: CDex 1.51
#
DISCID=b30c6d0c,b70c6d0c
DTITLE=Neville Brothers - Yellow Moon
DYEAR=1989
DGENRE=Rock
TTITLE0=My Blood
TTITLE1=Yellow Moon
TTITLE2=Fire And Brimstone
TTITLE3=A Change Is Gonna Come
TTITLE4=Sister Rosa
TTITLE5=With God On Our Side
TTITLE6=Wake Up
TTITLE7=Voo Doo
TTITLE8=The Ballad Of Hollis Brown
TTITLE9=Will The Circle Be Unbroken
TTITLE10=Healing Chant
TTITLE11=Wild Injuns
EXTD=Produced By Daniel Lanois YEAR: 1989
EXTT0=
EXTT1=
EXTT2=
EXTT3=
EXTT4=
EXTT5=
EXTT6=
EXTT7=
EXTT8=
EXTT9=
EXTT10=
EXTT11=
PLAYORDER=
